<svg xmlns="http://www.w3.org/2000/svg" xmlns:xlink="http://www.w3.org/1999/xlink" viewBox="0 0 202.69 130.5"><defs><style>.cls-1,.cls-2,.cls-6,.cls-7{fill:#231f20;}.cls-1,.cls-2,.cls-3,.cls-4,.cls-5{stroke:#c63233;}.cls-1,.cls-10,.cls-2,.cls-3,.cls-4,.cls-5,.cls-6,.cls-7,.cls-8,.cls-9{stroke-width:14px;}.cls-10,.cls-14,.cls-15,.cls-16,.cls-17,.cls-18,.cls-19,.cls-2,.cls-3,.cls-4,.cls-5,.cls-7,.cls-8,.cls-9{stroke-miterlimit:10;}.cls-13,.cls-14,.cls-3,.cls-8{fill:#fff;}.cls-16,.cls-18,.cls-4,.cls-9{fill:#f1f2f2;}.cls-10,.cls-15,.cls-5{fill:none;}.cls-10,.cls-6,.cls-7,.cls-8,.cls-9{stroke:#feefea;}.cls-11{fill:#f15b5a;}.cls-12,.cls-19{fill:#ed2d2d;}.cls-14,.cls-16{stroke:#fff;stroke-width:7px;}.cls-15,.cls-17,.cls-19{stroke:#ed2d2d;}.cls-15,.cls-17{stroke-width:1.5px;}.cls-17{fill:url(#linear-gradient);}.cls-18{stroke:#f1f2f2;stroke-width:9px;}.cls-19{stroke-width:4px;}.cls-20{fill:url(#linear-gradient-2);}.cls-21{fill:url(#linear-gradient-3);}</style><linearGradient id="linear-gradient" x1="7" y1="64.58" x2="32.51" y2="64.58" gradientUnits="userSpaceOnUse"><stop offset="0" stop-color="#ed2d2d"/><stop offset="1" stop-color="#a02d32"/></linearGradient><linearGradient id="linear-gradient-2" x1="184.21" y1="81.72" x2="180.59" y2="75.44" gradientUnits="userSpaceOnUse"><stop offset="0" stop-color="#d32027"/><stop offset="1" stop-color="#a02d32"/></linearGradient><linearGradient id="linear-gradient-3" x1="179.98" y1="87.72" x2="176.35" y2="81.44" xlink:href="#linear-gradient-2"/></defs><g id="Layer_2" data-name="Layer 2"><g id="logo3_copy" data-name="logo3 copy"><path class="cls-1" d="M47.8,74.53s-.14,0-.19,0l-9.37.48h-.09A1.19,1.19,0,0,1,37,74l-2-37.47v-.1a1.15,1.15,0,0,1,1.11-1.1l8.74-.48h.19l12.78-.67H58a1.23,1.23,0,0,1,1.15,1.1l.39,8.36v.09a1.24,1.24,0,0,1-1.11,1.16l-11.19.57.24,4.13h8.6a1.16,1.16,0,0,1,1.15,1.11v.09l-.1,7.35a1.21,1.21,0,0,1-1.2,1.2H48l.24,4.47,11.67-.62H60a1.16,1.16,0,0,1,1.15,1.1l.34,8.36a1.25,1.25,0,0,1-1.16,1.25Z"/><path class="cls-1" d="M83.43,65.06,64.46,64c-1.3,0-1.54-.63-1.54-1.39v-.24l.34-5.86a2.55,2.55,0,0,1,1-1.93,76,76,0,0,0,7.83-7.92c0-.1-.15-.15-.34-.15l-5.91-.28c-.53,0-1.63-.34-1.63-1.35v-.05l.33-6.15A1.51,1.51,0,0,1,66,37.05h.1L83,38c.53,0,2.45.1,2.45,1.73v.15l-.34,5.76a3.74,3.74,0,0,1-1,2.45c-1.35,1.49-4.18,4.23-6.82,6.87-.2.19-.24.29-.24.39s.09.14.28.14l6.63.29a1.45,1.45,0,0,1,1.54,1.53v.15l-.34,6.15a1.37,1.37,0,0,1-1.53,1.49Z"/><path class="cls-1" d="M106.68,61.91A22.66,22.66,0,0,1,100,63c-6.68,0-11.87-3.75-12.3-12.68-.14-3.13-.24-9.08-.29-12.16,0-2,.68-2.35,1.25-2.4,0-.09,7.5-.62,8.31-.62,1,0,1.35.48,1.4,1.06.28,3.21.38,5.81.67,11.52.19,4.13,1.63,5.58,3.65,5.58A8,8,0,0,0,106,52.4l.87-16.52a1,1,0,0,1,1.06-1l9.55.53a1,1,0,0,1,1,1l-1.29,25a1,1,0,0,1-1.06,1Z"/><path class="cls-1" d="M122.49,60.86a1,1,0,0,1-1.06-1l-1.35-25a1,1,0,0,1,1-1.06l5.58-.29a25,25,0,0,1,7.49-1.2,21.85,21.85,0,0,1,4.71.53c.72.2,1,.58,1,1.16a3.17,3.17,0,0,1-.1.62l-1.39,6.77a1.19,1.19,0,0,1-1.2,1,2.32,2.32,0,0,1-.53-.1,8.13,8.13,0,0,0-2.4-.38,8.69,8.69,0,0,0-2.12.29l.92,17v.1a1,1,0,0,1-1,1Z"/><path class="cls-1" d="M166.61,68.13c-.43.82-.91,1.25-1.54,1.25a12.58,12.58,0,0,1-6.24-3,16.33,16.33,0,0,1-7.54,1.88c-8,0-14.94-6.15-14.94-13.88,0-5.77,4.08-14.08,13.59-14.08a16.93,16.93,0,0,1,6.63,1.35,1.6,1.6,0,0,1,1.3-.48h.24l8.31.72c1.25.09,1.59.72,1.59,1.29v.24a85.91,85.91,0,0,0-1.35,11.72c0,2.89.53,5,2.07,5.77.48.24,1,.53,1,1a1,1,0,0,1-.14.43Zm-11.33-13.4c0-1.25,0-2.55.14-4a3.85,3.85,0,0,0-3.27-1.63c-3,0-4.7,2.93-4.7,5.38a4.82,4.82,0,0,0,5,5,7.75,7.75,0,0,0,3.07-.68A36.28,36.28,0,0,1,155.28,54.73Z"/><path class="cls-1" d="M48.6,77.74a1.18,1.18,0,0,1,1.11-1.2l7.69-.43a26.5,26.5,0,0,1,8.16-1.25c8.12,0,16.62,3.51,19.36,11.91a28.53,28.53,0,0,1,1.54,8.89c0,13.6-11.92,21-25.56,21a39.45,39.45,0,0,1-6.72-.58c-.39-.09-.77-.14-1.11-.19a2.89,2.89,0,0,1-2.59-3Zm13.55,27.67a8.93,8.93,0,0,0,1.15,0A9.85,9.85,0,0,0,73.49,95.37c0-.82,0-10.33-8.94-10.33a13.82,13.82,0,0,0-3.45.49Z"/><path class="cls-1" d="M104.09,123.5c-10.9,0-16.38-7.45-16.38-14.75,0-6.87,4.85-14.07,15.8-14.07,11.92,0,12.44,10.61,12.44,12.2,0,2.21-.91,4-3.74,5a34,34,0,0,1-8.31,1.4,1.09,1.09,0,0,1-1.2-.92c-.58-1.58-1.49-4.7-1.49-4.9,0-.53.38-.76,1-.91,2.5-.58,2.84-.67,2.84-1.34a2.86,2.86,0,0,0-2.93-2c-2.31,0-4.23,2-4.23,5,0,3.41,2.5,7.26,8.5,7.26a7.45,7.45,0,0,0,1.06,0h.1a1.39,1.39,0,0,1,1.49,1.25,38.31,38.31,0,0,1-2,5.38,2.42,2.42,0,0,1-2.4,1.44Z"/><path class="cls-1" d="M118.37,98.4c-1.06,0-1.54-.19-1.83-1l-2.11-5.57a1.43,1.43,0,0,1-.1-.38c0-.72,1-.82,1.54-.82,2.83-.05,4.18-1.39,4.18-2.55a4.86,4.86,0,0,0-1.3-2.25l-1.3-1.45c-2.11-2.4-3-4.46-3-6.29,0-5.43,7.83-8.31,14.12-8.31,1.87,0,2.35.19,2.69,1.06l2.16,5.57a.92.92,0,0,1,.1.48c0,.53-.53.72-1.16.72h-.19c-2.88,0-4,1-4,1.92s.73,1.73,2.55,3.75c2.21,2.4,3.17,4.56,3.17,6.39,0,5.67-8.6,8.74-15,8.74Z"/><path class="cls-1" d="M155,99a22.58,22.58,0,0,1-6.68,1.1c-6.67,0-11.86-3.74-12.29-12.68-.15-3.12-.24-9.07-.29-12.15,0-2,.67-2.35,1.25-2.4.05-.1,7.49-.63,8.31-.63s1.34.49,1.39,1.06c.29,3.22.38,5.81.67,11.53.19,4.13,1.64,5.57,3.65,5.57a8,8,0,0,0,3.32-.91l.86-16.52a1.06,1.06,0,0,1,1.06-1l9.56.53a1,1,0,0,1,1,1.06l-1.3,25a1.05,1.05,0,0,1-1.06,1Z"/><path class="cls-1" d="M57.08,30.39a.55.55,0,0,1-.19-.4.51.51,0,0,1,.3-.44,13.18,13.18,0,0,0,6-5.82c0-.17,0-.19-4.66-.59a.63.63,0,0,1-.56-.63v-.1l.54-2.77a.51.51,0,0,1,.59-.5h.17c1.61.18,6.31.69,7.48.79A2.12,2.12,0,0,1,69,22.09c0,1.57-1.32,3.82-1.7,4.4a3.63,3.63,0,0,0,2.31,1.14,3.13,3.13,0,0,0,2-.93.66.66,0,0,1,.33-.08.47.47,0,0,1,.36.14c2,2.39,2,2.42,2,2.65a.72.72,0,0,1-.12.42,5.56,5.56,0,0,1-4.49,2.32,8.75,8.75,0,0,1-5.37-2.24,11.27,11.27,0,0,1-4.61,2.7.72.72,0,0,1-.48-.19ZM69,19.24a.5.5,0,0,1-.48.4.83.83,0,0,1-.29-.06c-1.64-.63-4.45-1.68-5.83-2.18A.45.45,0,0,1,62.1,17a.53.53,0,0,1,0-.23l1-2.36c.11-.26.19-.36.5-.36a23.63,23.63,0,0,1,6.06,1.53.61.61,0,0,1,.42.54.73.73,0,0,1,0,.28Z"/><path class="cls-1" d="M85.43,23.73c.06,1.16.1,2.33.1,3.48a5.39,5.39,0,0,1,.7,2.69A10.34,10.34,0,0,1,84.65,35c-.27.44-.46.5-3.12.5-.8,0-.86-.06-.86-.19a1.43,1.43,0,0,1,.06-.21A18.58,18.58,0,0,0,81.45,33a7.37,7.37,0,0,1-1.32.12c-2,0-4.41-.92-4.41-4s2.39-4.53,4.89-4.53h.15l-.07-1.05-6.62-.27a.38.38,0,0,1-.4-.38l.11-3.39a.42.42,0,0,1,.44-.38l6.18.25-.15-1.9v-.09c0-.19.07-.36.4-.38l3.52-.2h0c.32,0,.44.31.49.54.12.71.23,1.45.31,2.2l4.7.19a.4.4,0,0,1,.39.42L90,23.5a.41.41,0,0,1-.42.4Zm-5.14,4.18a.83.83,0,0,0-.9.77.94.94,0,0,0,.86.94c.76,0,.84-.75.84-1.42A1.2,1.2,0,0,0,80.29,27.91ZM86.5,19h-.15c-.29,0-.44-.11-.5-.32l-.44-1.61a1.41,1.41,0,0,1,0-.25c0-.25.16-.34.4-.38l1.52-.19h.07a.62.62,0,0,1,.56.51l.36,1.57a.58.58,0,0,1,0,.19c0,.23-.14.35-.5.39Zm4.06.16a.44.44,0,0,1-.29.13.54.54,0,0,1-.38-.19l-1.34-1.45a.41.41,0,0,1-.14-.29c0-.15.14-.25.23-.31l1.07-.82a.48.48,0,0,1,.31-.1.83.83,0,0,1,.46.18l1.22,1.12.06,0a.38.38,0,0,1,.17.31.61.61,0,0,1-.21.38Z"/><path class="cls-1" d="M98.87,34.44a.54.54,0,0,1-.32-.44.51.51,0,0,1,.19-.39,4.84,4.84,0,0,0,1.66-3c0-1.41-1.47-2.5-5.6-2.5-.44,0-.92,0-1.43.05h0a.59.59,0,0,1-.61-.59,36.5,36.5,0,0,1,.55-4.49c.08-.44.23-.65.67-.65l.19,0,3.35.32c.27,0,.53.23.53.73v.06l-.07.91c4.74.08,7.57,2.41,7.57,5.47,0,1.78-1,3.83-3.12,5.82a.87.87,0,0,1-.59.21,1,1,0,0,1-.5-.12Zm-5.2-13.89a.45.45,0,0,1-.28-.4.55.55,0,0,1,.07-.25l1.15-2.52c.1-.23.19-.38.5-.38a25.74,25.74,0,0,1,6,1.62c.19.1.4.21.4.48a.87.87,0,0,1-.07.29l-1.24,3.21a.5.5,0,0,1-.48.4.69.69,0,0,1-.25-.06Z"/><path class="cls-1" d="M135.53,108.77c-.07.42-.46.44-.67.55A6.76,6.76,0,0,0,131,115a3.9,3.9,0,0,0,1.53,3.17.53.53,0,0,1,.21.38c0,.27-.34.5-.51.63-2.15,1.4-2.47,1.59-2.74,1.59-.46,0-3.31-2.2-3.31-5.89a12.42,12.42,0,0,1,2.14-6.42c-2.12-.21-5.22-.62-7.36-.86-.32,0-.48-.19-.48-.46a1.16,1.16,0,0,1,0-.17l.61-2.93c.09-.4.26-.54.72-.54a1.9,1.9,0,0,1,.31,0L135.4,105a.69.69,0,0,1,.63.69c0,.06,0,.1,0,.14ZM132.82,104h-.14a.46.46,0,0,1-.51-.31l-.44-1.66a1.29,1.29,0,0,1,0-.25c0-.23.17-.32.4-.36l1.55-.18h.06a.62.62,0,0,1,.55.5l.38,1.59c0,.06,0,.11,0,.17,0,.25-.15.38-.51.4Zm4.09.17a.52.52,0,0,1-.31.13.57.57,0,0,1-.38-.21l-1.32-1.43a.51.51,0,0,1-.15-.31.44.44,0,0,1,.21-.32l1.07-.82a.53.53,0,0,1,.31-.12.68.68,0,0,1,.47.21l1.23,1.11.05,0a.42.42,0,0,1,.16.34.48.48,0,0,1-.21.35Z"/><path class="cls-1" d="M151.14,109.57c.09,1.21.13,2.43.13,3.64a5.39,5.39,0,0,1,.69,2.69,10.42,10.42,0,0,1-1.57,5c-.27.44-.46.5-3.13.5-.79,0-.85-.06-.85-.19a1.43,1.43,0,0,1,.06-.21,20.57,20.57,0,0,0,.71-2.07,7.37,7.37,0,0,1-1.32.12c-2,0-4.4-.92-4.4-4s2.39-4.53,4.88-4.53h.15l-.08-1.21-6.61-.28a.38.38,0,0,1-.4-.37l.11-3.4A.42.42,0,0,1,140,105l6.18.25-.14-1.73v-.09c0-.19.06-.36.39-.38l3.53-.2h0c.42,0,.48.2.77,2.57l4.72.19a.41.41,0,0,1,.4.42l-.13,3.35a.4.4,0,0,1-.42.4ZM146,113.91a.83.83,0,0,0-.9.77.94.94,0,0,0,.86.94c.75,0,.83-.75.83-1.42A1.19,1.19,0,0,0,146,113.91Z"/><circle class="cls-2" cx="98.92" cy="78.36" r="12.78"/><path class="cls-3" d="M99.81,71.08l-9,8.61a1.24,1.24,0,0,0,.51,2.09l12,3.5a1.24,1.24,0,0,0,1.56-1.48l-2.94-12.11A1.25,1.25,0,0,0,99.81,71.08Z"/><ellipse class="cls-4" cx="184.17" cy="58.34" rx="3.06" ry="3.1" transform="translate(67.49 212.31) rotate(-70.42)"/><ellipse class="cls-4" cx="183.81" cy="58.04" rx="5" ry="12.48" transform="translate(67.53 211.77) rotate(-70.42)"/><ellipse class="cls-4" cx="184.27" cy="58.2" rx="5" ry="12.48" transform="translate(-7.49 34.29) rotate(-10.42)"/><ellipse class="cls-4" cx="184.27" cy="58.2" rx="12.48" ry="5" transform="translate(6.25 133.37) rotate(-40.42)"/><ellipse class="cls-2" cx="184.17" cy="58.34" rx="3.06" ry="3.1" transform="translate(67.49 212.31) rotate(-70.42)"/><ellipse class="cls-5" cx="183.81" cy="58.04" rx="5" ry="12.48" transform="translate(67.53 211.77) rotate(-70.42)"/><ellipse class="cls-5" cx="184.27" cy="58.2" rx="5" ry="12.48" transform="translate(-7.49 34.29) rotate(-10.42)"/><ellipse class="cls-5" cx="184.27" cy="58.2" rx="12.48" ry="5" transform="translate(6.25 133.37) rotate(-40.42)"/><path class="cls-4" d="M8.31,70.89,19,73.51,16.73,82.9a.86.86,0,0,0,1.28.94l13.67-9.36a1.73,1.73,0,0,0-.49-3.15L21,68.83l2-8.57a.86.86,0,0,0-1.28-.94L7.83,67.74A1.73,1.73,0,0,0,8.31,70.89Z"/><path class="cls-2" d="M8.31,70.89,19,73.51,16.73,82.9a.86.86,0,0,0,1.28.94l13.67-9.36a1.73,1.73,0,0,0-.49-3.15L21,68.83l2-8.57a.86.86,0,0,0-1.28-.94L7.83,67.74A1.73,1.73,0,0,0,8.31,70.89Z"/><path class="cls-4" d="M38.74,81.2l-13.6,11A.82.82,0,0,0,25,93.26l4.48,7.59a.81.81,0,0,0,.77.4l13.12-1a.83.83,0,0,0,.74-1l-4-17.54A.82.82,0,0,0,38.74,81.2Z"/><path class="cls-4" d="M38.7,81.28l-9.19,19.4a.3.3,0,0,0,.06.34.79.79,0,0,0,.63.23l12.77-1a1.13,1.13,0,0,0,1-1.37l-3.92-17.2a.82.82,0,0,0-1.25-.51A.35.35,0,0,0,38.7,81.28Z"/><path class="cls-2" d="M38.74,81.2l-13.6,11A.82.82,0,0,0,25,93.26l4.48,7.59a.81.81,0,0,0,.77.4l13.12-1a.83.83,0,0,0,.74-1l-4-17.54A.82.82,0,0,0,38.74,81.2Z"/><path class="cls-3" d="M38.7,81.28l-9.19,19.4a.3.3,0,0,0,.06.34.79.79,0,0,0,.63.23l12.77-1a1.13,1.13,0,0,0,1-1.37l-3.92-17.2a.82.82,0,0,0-1.25-.51A.35.35,0,0,0,38.7,81.28Z"/><circle class="cls-4" cx="180.51" cy="88.64" r="13.5"/><path class="cls-2" d="M189.62,83.14s-1.69,4-6.77,1-5.92,2-7.61,4c0,0,3.38-4,7.61-1C185.47,89,187.87,87.21,189.62,83.14Z"/><path class="cls-2" d="M185.39,89.14s-1.69,4-6.77,1-5.92,2-7.61,4c0,0,3.38-4,7.61-1C181.24,95,183.64,93.21,185.39,89.14Z"/><path class="cls-6" d="M47.8,67.53s-.14,0-.19,0l-9.37.48h-.09A1.19,1.19,0,0,1,37,67l-2-37.47v-.1a1.15,1.15,0,0,1,1.11-1.1l8.74-.48h.19l12.78-.67H58a1.23,1.23,0,0,1,1.15,1.1l.39,8.36v.09a1.24,1.24,0,0,1-1.11,1.16l-11.19.57.24,4.13h8.6a1.16,1.16,0,0,1,1.15,1.11v.09l-.1,7.35a1.21,1.21,0,0,1-1.2,1.2H48l.24,4.47,11.67-.62H60a1.16,1.16,0,0,1,1.15,1.1l.34,8.36a1.25,1.25,0,0,1-1.16,1.25Z"/><path class="cls-6" d="M83.43,58.06,64.46,57c-1.3,0-1.54-.63-1.54-1.39v-.24l.34-5.86a2.55,2.55,0,0,1,1-1.93,76,76,0,0,0,7.83-7.92c0-.1-.15-.15-.34-.15l-5.91-.28c-.53,0-1.63-.34-1.63-1.35v-.05l.33-6.15A1.51,1.51,0,0,1,66,30.05h.1L83,31c.53,0,2.45.1,2.45,1.73v.15l-.34,5.76a3.74,3.74,0,0,1-1,2.45c-1.35,1.49-4.18,4.23-6.82,6.87-.2.19-.24.29-.24.39s.09.14.28.14l6.63.29a1.45,1.45,0,0,1,1.54,1.53v.15l-.34,6.15a1.37,1.37,0,0,1-1.53,1.49Z"/><path class="cls-6" d="M106.68,54.91A22.66,22.66,0,0,1,100,56c-6.68,0-11.87-3.75-12.3-12.68-.14-3.13-.24-9.08-.29-12.16,0-2,.68-2.35,1.25-2.4,0-.09,7.5-.62,8.31-.62,1,0,1.35.48,1.4,1.06.28,3.21.38,5.81.67,11.52.19,4.13,1.63,5.58,3.65,5.58A8,8,0,0,0,106,45.4l.87-16.52a1,1,0,0,1,1.06-1l9.55.53a1,1,0,0,1,1,1.05l-1.29,25a1,1,0,0,1-1.06,1Z"/><path class="cls-6" d="M122.49,53.86a1,1,0,0,1-1.06-1l-1.35-25a1,1,0,0,1,1-1.06l5.58-.29a25,25,0,0,1,7.49-1.2,21.85,21.85,0,0,1,4.71.53c.72.2,1,.58,1,1.16a3.17,3.17,0,0,1-.1.62l-1.39,6.77a1.19,1.19,0,0,1-1.2,1,2.32,2.32,0,0,1-.53-.1,8.13,8.13,0,0,0-2.4-.38,8.69,8.69,0,0,0-2.12.29l.92,17v.1a1,1,0,0,1-1,1Z"/><path class="cls-6" d="M166.61,61.13c-.43.82-.91,1.25-1.54,1.25a12.58,12.58,0,0,1-6.24-3,16.33,16.33,0,0,1-7.54,1.88c-8,0-14.94-6.15-14.94-13.88,0-5.77,4.08-14.08,13.59-14.08a16.93,16.93,0,0,1,6.63,1.35,1.6,1.6,0,0,1,1.3-.48h.24l8.31.72c1.25.09,1.59.72,1.59,1.29v.24a85.91,85.91,0,0,0-1.35,11.72c0,2.89.53,5,2.07,5.77.48.24,1,.53,1,1a1,1,0,0,1-.14.43Zm-11.33-13.4c0-1.25,0-2.55.14-4a3.85,3.85,0,0,0-3.27-1.63c-3,0-4.7,2.93-4.7,5.38a4.82,4.82,0,0,0,5,5,7.75,7.75,0,0,0,3.07-.68A36.28,36.28,0,0,1,155.28,47.73Z"/><path class="cls-6" d="M48.6,70.74a1.18,1.18,0,0,1,1.11-1.2l7.69-.43a26.5,26.5,0,0,1,8.16-1.25c8.12,0,16.62,3.51,19.36,11.91a28.53,28.53,0,0,1,1.54,8.89c0,13.6-11.92,21-25.56,21a39.45,39.45,0,0,1-6.72-.58c-.39-.09-.77-.14-1.11-.19a2.89,2.89,0,0,1-2.59-3ZM62.15,98.41a8.93,8.93,0,0,0,1.15,0A9.85,9.85,0,0,0,73.49,88.37c0-.82,0-10.33-8.94-10.33a13.82,13.82,0,0,0-3.45.49Z"/><path class="cls-6" d="M104.09,116.5c-10.9,0-16.38-7.45-16.38-14.75,0-6.87,4.85-14.07,15.8-14.07,11.92,0,12.44,10.61,12.44,12.2,0,2.21-.91,4-3.74,5a34,34,0,0,1-8.31,1.4,1.09,1.09,0,0,1-1.2-.92c-.58-1.58-1.49-4.7-1.49-4.9,0-.53.38-.76,1-.91,2.5-.58,2.84-.67,2.84-1.34a2.86,2.86,0,0,0-2.93-2c-2.31,0-4.23,2-4.23,5,0,3.41,2.5,7.26,8.5,7.26a7.45,7.45,0,0,0,1.06,0h.1a1.39,1.39,0,0,1,1.49,1.25,38.31,38.31,0,0,1-2,5.38,2.42,2.42,0,0,1-2.4,1.44Z"/><path class="cls-6" d="M118.37,91.4c-1.06,0-1.54-.19-1.83-1l-2.11-5.57a1.43,1.43,0,0,1-.1-.38c0-.72,1-.82,1.54-.82,2.83-.05,4.18-1.39,4.18-2.55a4.86,4.86,0,0,0-1.3-2.25l-1.3-1.45c-2.11-2.4-3-4.46-3-6.29,0-5.43,7.83-8.31,14.12-8.31,1.87,0,2.35.19,2.69,1.06l2.16,5.57a.92.92,0,0,1,.1.48c0,.53-.53.72-1.16.72h-.19c-2.88,0-4,1-4,1.92s.73,1.73,2.55,3.75c2.21,2.4,3.17,4.56,3.17,6.39,0,5.67-8.6,8.74-15,8.74Z"/><path class="cls-6" d="M155,92a22.58,22.58,0,0,1-6.68,1.1c-6.67,0-11.86-3.74-12.29-12.68-.15-3.12-.24-9.07-.29-12.15,0-2,.67-2.35,1.25-2.4.05-.1,7.49-.63,8.31-.63s1.34.49,1.39,1.06c.29,3.22.38,5.81.67,11.53.19,4.13,1.64,5.57,3.65,5.57a8,8,0,0,0,3.32-.91l.86-16.52a1.06,1.06,0,0,1,1.06-1l9.56.53a1,1,0,0,1,1,1.06l-1.3,25a1.05,1.05,0,0,1-1.06,1Z"/><path class="cls-6" d="M57.08,23.39a.55.55,0,0,1-.19-.4.51.51,0,0,1,.3-.44,13.18,13.18,0,0,0,6-5.82c0-.17,0-.19-4.66-.59a.63.63,0,0,1-.56-.63v-.1l.54-2.77a.51.51,0,0,1,.59-.5h.17c1.61.18,6.31.69,7.48.79A2.12,2.12,0,0,1,69,15.09c0,1.57-1.32,3.82-1.7,4.4a3.63,3.63,0,0,0,2.31,1.14,3.13,3.13,0,0,0,2-.93.66.66,0,0,1,.33-.08.47.47,0,0,1,.36.14c2,2.39,2,2.42,2,2.65a.72.72,0,0,1-.12.42,5.56,5.56,0,0,1-4.49,2.32,8.75,8.75,0,0,1-5.37-2.24,11.27,11.27,0,0,1-4.61,2.7.72.72,0,0,1-.48-.19ZM69,12.24a.5.5,0,0,1-.48.4.83.83,0,0,1-.29-.06c-1.64-.63-4.45-1.68-5.83-2.18A.45.45,0,0,1,62.1,10a.53.53,0,0,1,0-.23l1-2.36c.11-.26.19-.36.5-.36a23.63,23.63,0,0,1,6.06,1.53.61.61,0,0,1,.42.54.73.73,0,0,1,0,.28Z"/><path class="cls-6" d="M85.43,16.73c.06,1.16.1,2.33.1,3.48a5.39,5.39,0,0,1,.7,2.69A10.34,10.34,0,0,1,84.65,28c-.27.44-.46.5-3.12.5-.8,0-.86-.06-.86-.19a1.43,1.43,0,0,1,.06-.21A18.58,18.58,0,0,0,81.45,26a7.37,7.37,0,0,1-1.32.12c-2,0-4.41-.92-4.41-4s2.39-4.53,4.89-4.53h.15l-.07-1.05-6.62-.27a.38.38,0,0,1-.4-.38l.11-3.39a.42.42,0,0,1,.44-.38l6.18.25-.15-1.9v-.09c0-.19.07-.36.4-.38l3.52-.2h0c.32,0,.44.31.49.54.12.71.23,1.45.31,2.2l4.7.19a.4.4,0,0,1,.39.42L90,16.5a.41.41,0,0,1-.42.4Zm-5.14,4.18a.83.83,0,0,0-.9.77.94.94,0,0,0,.86.94c.76,0,.84-.75.84-1.42A1.2,1.2,0,0,0,80.29,20.91ZM86.5,12h-.15c-.29,0-.44-.11-.5-.32l-.44-1.61a1.41,1.41,0,0,1,0-.25c0-.25.16-.34.4-.38l1.52-.19h.07a.62.62,0,0,1,.56.51l.36,1.57a.58.58,0,0,1,0,.19c0,.23-.14.35-.5.39Zm4.06.16a.44.44,0,0,1-.29.13.54.54,0,0,1-.38-.19l-1.34-1.45a.41.41,0,0,1-.14-.29c0-.15.14-.25.23-.31l1.07-.82a.48.48,0,0,1,.31-.1.83.83,0,0,1,.46.18l1.22,1.12.06,0a.38.38,0,0,1,.17.31.61.61,0,0,1-.21.38Z"/><path class="cls-6" d="M98.87,27.44a.54.54,0,0,1-.32-.44.51.51,0,0,1,.19-.39,4.84,4.84,0,0,0,1.66-3c0-1.41-1.47-2.5-5.6-2.5-.44,0-.92,0-1.43.05h0a.59.59,0,0,1-.61-.59,36.5,36.5,0,0,1,.55-4.49c.08-.44.23-.65.67-.65l.19,0,3.35.32c.27,0,.53.23.53.73v.06l-.07.91c4.74.08,7.57,2.41,7.57,5.47,0,1.78-1,3.83-3.12,5.82a.87.87,0,0,1-.59.21,1,1,0,0,1-.5-.12Zm-5.2-13.89a.45.45,0,0,1-.28-.4.55.55,0,0,1,.07-.25l1.15-2.52c.1-.23.19-.38.5-.38a25.74,25.74,0,0,1,6,1.62c.19.1.4.21.4.48a.87.87,0,0,1-.07.29l-1.24,3.21a.5.5,0,0,1-.48.4.69.69,0,0,1-.25-.06Z"/><path class="cls-6" d="M135.53,101.77c-.07.42-.46.44-.67.55A6.76,6.76,0,0,0,131,108a3.9,3.9,0,0,0,1.53,3.17.53.53,0,0,1,.21.38c0,.27-.34.5-.51.63-2.15,1.4-2.47,1.59-2.74,1.59-.46,0-3.31-2.2-3.31-5.89a12.42,12.42,0,0,1,2.14-6.42c-2.12-.21-5.22-.62-7.36-.86-.32,0-.48-.19-.48-.46a1.16,1.16,0,0,1,0-.17l.61-2.93c.09-.4.26-.54.72-.54a1.9,1.9,0,0,1,.31,0L135.4,98a.69.69,0,0,1,.63.69c0,.06,0,.1,0,.14ZM132.82,97h-.14a.46.46,0,0,1-.51-.31l-.44-1.66a1.29,1.29,0,0,1,0-.25c0-.23.17-.32.4-.36l1.55-.18h.06a.62.62,0,0,1,.55.5l.38,1.59c0,.06,0,.11,0,.17,0,.25-.15.38-.51.4Zm4.09.17a.52.52,0,0,1-.31.13.57.57,0,0,1-.38-.21l-1.32-1.43a.51.51,0,0,1-.15-.31.44.44,0,0,1,.21-.32l1.07-.82a.53.53,0,0,1,.31-.12.68.68,0,0,1,.47.21L138,95.44l.05,0a.42.42,0,0,1,.16.34.48.48,0,0,1-.21.35Z"/><path class="cls-6" d="M151.14,102.57c.09,1.21.13,2.43.13,3.64a5.39,5.39,0,0,1,.69,2.69,10.42,10.42,0,0,1-1.57,5c-.27.44-.46.5-3.13.5-.79,0-.85-.06-.85-.19a1.43,1.43,0,0,1,.06-.21,20.57,20.57,0,0,0,.71-2.07,7.37,7.37,0,0,1-1.32.12c-2,0-4.4-.92-4.4-4s2.39-4.53,4.88-4.53h.15l-.08-1.21-6.61-.28a.38.38,0,0,1-.4-.37l.11-3.4A.42.42,0,0,1,140,98l6.18.25L146,96.47v-.09c0-.19.06-.36.39-.38l3.53-.2h0c.42,0,.48.2.77,2.57l4.72.19a.41.41,0,0,1,.4.42l-.13,3.35a.4.4,0,0,1-.42.4ZM146,106.91a.83.83,0,0,0-.9.77.94.94,0,0,0,.86.94c.75,0,.83-.75.83-1.42A1.19,1.19,0,0,0,146,106.91Z"/><circle class="cls-7" cx="98.92" cy="71.36" r="12.78"/><path class="cls-8" d="M99.81,64.08l-9,8.61a1.24,1.24,0,0,0,.51,2.09l12,3.5a1.24,1.24,0,0,0,1.56-1.48l-2.94-12.11A1.25,1.25,0,0,0,99.81,64.08Z"/><ellipse class="cls-9" cx="184.17" cy="51.34" rx="3.06" ry="3.1" transform="translate(74.08 207.66) rotate(-70.42)"/><ellipse class="cls-9" cx="183.81" cy="51.04" rx="5" ry="12.48" transform="translate(74.13 207.11) rotate(-70.42)"/><ellipse class="cls-9" cx="184.27" cy="51.2" rx="5" ry="12.48" transform="translate(-6.22 34.17) rotate(-10.42)"/><ellipse class="cls-9" cx="184.27" cy="51.2" rx="12.48" ry="5" transform="translate(10.79 131.7) rotate(-40.42)"/><ellipse class="cls-7" cx="184.17" cy="51.34" rx="3.06" ry="3.1" transform="translate(74.08 207.66) rotate(-70.42)"/><ellipse class="cls-10" cx="183.81" cy="51.04" rx="5" ry="12.48" transform="translate(74.13 207.11) rotate(-70.42)"/><ellipse class="cls-10" cx="184.27" cy="51.2" rx="5" ry="12.48" transform="translate(-6.22 34.17) rotate(-10.42)"/><ellipse class="cls-10" cx="184.27" cy="51.2" rx="12.48" ry="5" transform="translate(10.79 131.7) rotate(-40.42)"/><path class="cls-9" d="M8.31,63.89,19,66.51,16.73,75.9a.86.86,0,0,0,1.28.94l13.67-9.36a1.73,1.73,0,0,0-.49-3.15L21,61.83l2-8.57a.86.86,0,0,0-1.28-.94L7.83,60.74A1.73,1.73,0,0,0,8.31,63.89Z"/><path class="cls-7" d="M8.31,63.89,19,66.51,16.73,75.9a.86.86,0,0,0,1.28.94l13.67-9.36a1.73,1.73,0,0,0-.49-3.15L21,61.83l2-8.57a.86.86,0,0,0-1.28-.94L7.83,60.74A1.73,1.73,0,0,0,8.31,63.89Z"/><path class="cls-9" d="M38.74,74.2l-13.6,11A.82.82,0,0,0,25,86.26l4.48,7.59a.81.81,0,0,0,.77.4l13.12-1a.83.83,0,0,0,.74-1l-4-17.54A.82.82,0,0,0,38.74,74.2Z"/><path class="cls-9" d="M38.7,74.28l-9.19,19.4a.3.3,0,0,0,.06.34.79.79,0,0,0,.63.23l12.77-1a1.13,1.13,0,0,0,1-1.37l-3.92-17.2a.82.82,0,0,0-1.25-.51A.35.35,0,0,0,38.7,74.28Z"/><path class="cls-7" d="M38.74,74.2l-13.6,11A.82.82,0,0,0,25,86.26l4.48,7.59a.81.81,0,0,0,.77.4l13.12-1a.83.83,0,0,0,.74-1l-4-17.54A.82.82,0,0,0,38.74,74.2Z"/><path class="cls-8" d="M38.7,74.28l-9.19,19.4a.3.3,0,0,0,.06.34.79.79,0,0,0,.63.23l12.77-1a1.13,1.13,0,0,0,1-1.37l-3.92-17.2a.82.82,0,0,0-1.25-.51A.35.35,0,0,0,38.7,74.28Z"/><circle class="cls-9" cx="180.51" cy="81.64" r="13.5"/><path class="cls-7" d="M189.62,76.14s-1.69,4-6.77,1-5.92,2-7.61,4c0,0,3.38-4,7.61-1C185.47,82,187.87,80.21,189.62,76.14Z"/><path class="cls-7" d="M185.39,82.14s-1.69,4-6.77,1-5.92,2-7.61,4c0,0,3.38-4,7.61-1C181.24,88,183.64,86.21,185.39,82.14Z"/><path class="cls-11" d="M47.8,67.53s-.14,0-.19,0l-9.37.48h-.09A1.19,1.19,0,0,1,37,67l-2-37.47v-.1a1.15,1.15,0,0,1,1.11-1.1l8.74-.48h.19l12.78-.67H58a1.23,1.23,0,0,1,1.15,1.1l.39,8.36v.09a1.24,1.24,0,0,1-1.11,1.16l-11.19.57.24,4.13h8.6a1.16,1.16,0,0,1,1.15,1.11v.09l-.1,7.35a1.21,1.21,0,0,1-1.2,1.2H48l.24,4.47,11.67-.62H60a1.16,1.16,0,0,1,1.15,1.1l.34,8.36a1.25,1.25,0,0,1-1.16,1.25Z"/><path class="cls-11" d="M83.43,58.06,64.46,57c-1.3,0-1.54-.63-1.54-1.39v-.24l.34-5.86a2.55,2.55,0,0,1,1-1.93,76,76,0,0,0,7.83-7.92c0-.1-.15-.15-.34-.15l-5.91-.28c-.53,0-1.63-.34-1.63-1.35v-.05l.33-6.15A1.51,1.51,0,0,1,66,30.05h.1L83,31c.53,0,2.45.1,2.45,1.73v.15l-.34,5.76a3.74,3.74,0,0,1-1,2.45c-1.35,1.49-4.18,4.23-6.82,6.87-.2.19-.24.29-.24.39s.09.14.28.14l6.63.29a1.45,1.45,0,0,1,1.54,1.53v.15l-.34,6.15a1.37,1.37,0,0,1-1.53,1.49Z"/><path class="cls-11" d="M106.68,54.91A22.66,22.66,0,0,1,100,56c-6.68,0-11.87-3.75-12.3-12.68-.14-3.13-.24-9.08-.29-12.16,0-2,.68-2.35,1.25-2.4,0-.09,7.5-.62,8.31-.62,1,0,1.35.48,1.4,1.06.28,3.21.38,5.81.67,11.52.19,4.13,1.63,5.58,3.65,5.58A8,8,0,0,0,106,45.4l.87-16.52a1,1,0,0,1,1.06-1l9.55.53a1,1,0,0,1,1,1.05l-1.29,25a1,1,0,0,1-1.06,1Z"/><path class="cls-11" d="M122.49,53.86a1,1,0,0,1-1.06-1l-1.35-25a1,1,0,0,1,1-1.06l5.58-.29a25,25,0,0,1,7.49-1.2,21.85,21.85,0,0,1,4.71.53c.72.2,1,.58,1,1.16a3.17,3.17,0,0,1-.1.62l-1.39,6.77a1.19,1.19,0,0,1-1.2,1,2.32,2.32,0,0,1-.53-.1,8.13,8.13,0,0,0-2.4-.38,8.69,8.69,0,0,0-2.12.29l.92,17v.1a1,1,0,0,1-1,1Z"/><path class="cls-11" d="M166.61,61.13c-.43.82-.91,1.25-1.54,1.25a12.58,12.58,0,0,1-6.24-3,16.33,16.33,0,0,1-7.54,1.88c-8,0-14.94-6.15-14.94-13.88,0-5.77,4.08-14.08,13.59-14.08a16.93,16.93,0,0,1,6.63,1.35,1.6,1.6,0,0,1,1.3-.48h.24l8.31.72c1.25.09,1.59.72,1.59,1.29v.24a85.91,85.91,0,0,0-1.35,11.72c0,2.89.53,5,2.07,5.77.48.24,1,.53,1,1a1,1,0,0,1-.14.43Zm-11.33-13.4c0-1.25,0-2.55.14-4a3.85,3.85,0,0,0-3.27-1.63c-3,0-4.7,2.93-4.7,5.38a4.82,4.82,0,0,0,5,5,7.75,7.75,0,0,0,3.07-.68A36.28,36.28,0,0,1,155.28,47.73Z"/><path class="cls-11" d="M48.6,70.74a1.18,1.18,0,0,1,1.11-1.2l7.69-.43a26.5,26.5,0,0,1,8.16-1.25c8.12,0,16.62,3.51,19.36,11.91a28.53,28.53,0,0,1,1.54,8.89c0,13.6-11.92,21-25.56,21a39.45,39.45,0,0,1-6.72-.58c-.39-.09-.77-.14-1.11-.19a2.89,2.89,0,0,1-2.59-3ZM62.15,98.41a8.93,8.93,0,0,0,1.15,0A9.85,9.85,0,0,0,73.49,88.37c0-.82,0-10.33-8.94-10.33a13.82,13.82,0,0,0-3.45.49Z"/><path class="cls-11" d="M104.09,116.5c-10.9,0-16.38-7.45-16.38-14.75,0-6.87,4.85-14.07,15.8-14.07,11.92,0,12.44,10.61,12.44,12.2,0,2.21-.91,4-3.74,5a34,34,0,0,1-8.31,1.4,1.09,1.09,0,0,1-1.2-.92c-.58-1.58-1.49-4.7-1.49-4.9,0-.53.38-.76,1-.91,2.5-.58,2.84-.67,2.84-1.34a2.86,2.86,0,0,0-2.93-2c-2.31,0-4.23,2-4.23,5,0,3.41,2.5,7.26,8.5,7.26a7.45,7.45,0,0,0,1.06,0h.1a1.39,1.39,0,0,1,1.49,1.25,38.31,38.31,0,0,1-2,5.38,2.42,2.42,0,0,1-2.4,1.44Z"/><path class="cls-11" d="M118.37,91.4c-1.06,0-1.54-.19-1.83-1l-2.11-5.57a1.43,1.43,0,0,1-.1-.38c0-.72,1-.82,1.54-.82,2.83-.05,4.18-1.39,4.18-2.55a4.86,4.86,0,0,0-1.3-2.25l-1.3-1.45c-2.11-2.4-3-4.46-3-6.29,0-5.43,7.83-8.31,14.12-8.31,1.87,0,2.35.19,2.69,1.06l2.16,5.57a.92.92,0,0,1,.1.48c0,.53-.53.72-1.16.72h-.19c-2.88,0-4,1-4,1.92s.73,1.73,2.55,3.75c2.21,2.4,3.17,4.56,3.17,6.39,0,5.67-8.6,8.74-15,8.74Z"/><path class="cls-11" d="M155,92a22.58,22.58,0,0,1-6.68,1.1c-6.67,0-11.86-3.74-12.29-12.68-.15-3.12-.24-9.07-.29-12.15,0-2,.67-2.35,1.25-2.4.05-.1,7.49-.63,8.31-.63s1.34.49,1.39,1.06c.29,3.22.38,5.81.67,11.53.19,4.13,1.64,5.57,3.65,5.57a8,8,0,0,0,3.32-.91l.86-16.52a1.06,1.06,0,0,1,1.06-1l9.56.53a1,1,0,0,1,1,1.06l-1.3,25a1.05,1.05,0,0,1-1.06,1Z"/><path class="cls-11" d="M57.08,23.39a.55.55,0,0,1-.19-.4.51.51,0,0,1,.3-.44,13.18,13.18,0,0,0,6-5.82c0-.17,0-.19-4.66-.59a.63.63,0,0,1-.56-.63v-.1l.54-2.77a.51.51,0,0,1,.59-.5h.17c1.61.18,6.31.69,7.48.79A2.12,2.12,0,0,1,69,15.09c0,1.57-1.32,3.82-1.7,4.4a3.63,3.63,0,0,0,2.31,1.14,3.13,3.13,0,0,0,2-.93.66.66,0,0,1,.33-.08.47.47,0,0,1,.36.14c2,2.39,2,2.42,2,2.65a.72.72,0,0,1-.12.42,5.56,5.56,0,0,1-4.49,2.32,8.75,8.75,0,0,1-5.37-2.24,11.27,11.27,0,0,1-4.61,2.7.72.72,0,0,1-.48-.19ZM69,12.24a.5.5,0,0,1-.48.4.83.83,0,0,1-.29-.06c-1.64-.63-4.45-1.68-5.83-2.18A.45.45,0,0,1,62.1,10a.53.53,0,0,1,0-.23l1-2.36c.11-.26.19-.36.5-.36a23.63,23.63,0,0,1,6.06,1.53.61.61,0,0,1,.42.54.73.73,0,0,1,0,.28Z"/><path class="cls-11" d="M85.43,16.73c.06,1.16.1,2.33.1,3.48a5.39,5.39,0,0,1,.7,2.69A10.34,10.34,0,0,1,84.65,28c-.27.44-.46.5-3.12.5-.8,0-.86-.06-.86-.19a1.43,1.43,0,0,1,.06-.21A18.58,18.58,0,0,0,81.45,26a7.37,7.37,0,0,1-1.32.12c-2,0-4.41-.92-4.41-4s2.39-4.53,4.89-4.53h.15l-.07-1.05-6.62-.27a.38.38,0,0,1-.4-.38l.11-3.39a.42.42,0,0,1,.44-.38l6.18.25-.15-1.9v-.09c0-.19.07-.36.4-.38l3.52-.2h0c.32,0,.44.31.49.54.12.71.23,1.45.31,2.2l4.7.19a.4.4,0,0,1,.39.42L90,16.5a.41.41,0,0,1-.42.4Zm-5.14,4.18a.83.83,0,0,0-.9.77.94.94,0,0,0,.86.94c.76,0,.84-.75.84-1.42A1.2,1.2,0,0,0,80.29,20.91ZM86.5,12h-.15c-.29,0-.44-.11-.5-.32l-.44-1.61a1.41,1.41,0,0,1,0-.25c0-.25.16-.34.4-.38l1.52-.19h.07a.62.62,0,0,1,.56.51l.36,1.57a.58.58,0,0,1,0,.19c0,.23-.14.35-.5.39Zm4.06.16a.44.44,0,0,1-.29.13.54.54,0,0,1-.38-.19l-1.34-1.45a.41.41,0,0,1-.14-.29c0-.15.14-.25.23-.31l1.07-.82a.48.48,0,0,1,.31-.1.83.83,0,0,1,.46.18l1.22,1.12.06,0a.38.38,0,0,1,.17.31.61.61,0,0,1-.21.38Z"/><path class="cls-11" d="M98.87,27.44a.54.54,0,0,1-.32-.44.51.51,0,0,1,.19-.39,4.84,4.84,0,0,0,1.66-3c0-1.41-1.47-2.5-5.6-2.5-.44,0-.92,0-1.43.05h0a.59.59,0,0,1-.61-.59,36.5,36.5,0,0,1,.55-4.49c.08-.44.23-.65.67-.65l.19,0,3.35.32c.27,0,.53.23.53.73v.06l-.07.91c4.74.08,7.57,2.41,7.57,5.47,0,1.78-1,3.83-3.12,5.82a.87.87,0,0,1-.59.21,1,1,0,0,1-.5-.12Zm-5.2-13.89a.45.45,0,0,1-.28-.4.55.55,0,0,1,.07-.25l1.15-2.52c.1-.23.19-.38.5-.38a25.74,25.74,0,0,1,6,1.62c.19.1.4.21.4.48a.87.87,0,0,1-.07.29l-1.24,3.21a.5.5,0,0,1-.48.4.69.69,0,0,1-.25-.06Z"/><path class="cls-11" d="M135.53,101.77c-.07.42-.46.44-.67.55A6.76,6.76,0,0,0,131,108a3.9,3.9,0,0,0,1.53,3.17.53.53,0,0,1,.21.38c0,.27-.34.5-.51.63-2.15,1.4-2.47,1.59-2.74,1.59-.46,0-3.31-2.2-3.31-5.89a12.42,12.42,0,0,1,2.14-6.42c-2.12-.21-5.22-.62-7.36-.86-.32,0-.48-.19-.48-.46a1.16,1.16,0,0,1,0-.17l.61-2.93c.09-.4.26-.54.72-.54a1.9,1.9,0,0,1,.31,0L135.4,98a.69.69,0,0,1,.63.69c0,.06,0,.1,0,.14ZM132.82,97h-.14a.46.46,0,0,1-.51-.31l-.44-1.66a1.29,1.29,0,0,1,0-.25c0-.23.17-.32.4-.36l1.55-.18h.06a.62.62,0,0,1,.55.5l.38,1.59c0,.06,0,.11,0,.17,0,.25-.15.38-.51.4Zm4.09.17a.52.52,0,0,1-.31.13.57.57,0,0,1-.38-.21l-1.32-1.43a.51.51,0,0,1-.15-.31.44.44,0,0,1,.21-.32l1.07-.82a.53.53,0,0,1,.31-.12.68.68,0,0,1,.47.21L138,95.44l.05,0a.42.42,0,0,1,.16.34.48.48,0,0,1-.21.35Z"/><path class="cls-11" d="M151.14,102.57c.09,1.21.13,2.43.13,3.64a5.39,5.39,0,0,1,.69,2.69,10.42,10.42,0,0,1-1.57,5c-.27.44-.46.5-3.13.5-.79,0-.85-.06-.85-.19a1.43,1.43,0,0,1,.06-.21,20.57,20.57,0,0,0,.71-2.07,7.37,7.37,0,0,1-1.32.12c-2,0-4.4-.92-4.4-4s2.39-4.53,4.88-4.53h.15l-.08-1.21-6.61-.28a.38.38,0,0,1-.4-.37l.11-3.4A.42.42,0,0,1,140,98l6.18.25L146,96.47v-.09c0-.19.06-.36.39-.38l3.53-.2h0c.42,0,.48.2.77,2.57l4.72.19a.41.41,0,0,1,.4.42l-.13,3.35a.4.4,0,0,1-.42.4ZM146,106.91a.83.83,0,0,0-.9.77.94.94,0,0,0,.86.94c.75,0,.83-.75.83-1.42A1.19,1.19,0,0,0,146,106.91Z"/><circle class="cls-12" cx="98.92" cy="71.36" r="12.78"/><path class="cls-13" d="M99.81,64.08l-9,8.61a1.24,1.24,0,0,0,.51,2.09l12,3.5a1.24,1.24,0,0,0,1.56-1.48l-2.94-12.11A1.25,1.25,0,0,0,99.81,64.08Z"/><ellipse class="cls-14" cx="184.17" cy="51.34" rx="3.06" ry="3.1" transform="translate(74.08 207.66) rotate(-70.42)"/><ellipse class="cls-14" cx="183.81" cy="51.04" rx="5" ry="12.48" transform="translate(74.13 207.11) rotate(-70.42)"/><ellipse class="cls-14" cx="184.27" cy="51.2" rx="5" ry="12.48" transform="translate(-6.22 34.17) rotate(-10.42)"/><ellipse class="cls-14" cx="184.27" cy="51.2" rx="12.48" ry="5" transform="translate(10.79 131.7) rotate(-40.42)"/><ellipse class="cls-12" cx="184.17" cy="51.34" rx="3.06" ry="3.1" transform="translate(74.08 207.66) rotate(-70.42)"/><ellipse class="cls-15" cx="183.81" cy="51.04" rx="5" ry="12.48" transform="translate(74.13 207.11) rotate(-70.42)"/><ellipse class="cls-15" cx="184.27" cy="51.2" rx="5" ry="12.48" transform="translate(-6.22 34.17) rotate(-10.42)"/><ellipse class="cls-15" cx="184.27" cy="51.2" rx="12.48" ry="5" transform="translate(10.79 131.7) rotate(-40.42)"/><path class="cls-16" d="M8.31,63.89,19,66.51,16.73,75.9a.86.86,0,0,0,1.28.94l13.67-9.36a1.73,1.73,0,0,0-.49-3.15L21,61.83l2-8.57a.86.86,0,0,0-1.28-.94L7.83,60.74A1.73,1.73,0,0,0,8.31,63.89Z"/><path class="cls-17" d="M8.31,63.89,19,66.51,16.73,75.9a.86.86,0,0,0,1.28.94l13.67-9.36a1.73,1.73,0,0,0-.49-3.15L21,61.83l2-8.57a.86.86,0,0,0-1.28-.94L7.83,60.74A1.73,1.73,0,0,0,8.31,63.89Z"/><path class="cls-18" d="M38.74,74.2l-13.6,11A.82.82,0,0,0,25,86.26l4.48,7.59a.81.81,0,0,0,.77.4l13.12-1a.83.83,0,0,0,.74-1l-4-17.54A.82.82,0,0,0,38.74,74.2Z"/><path class="cls-18" d="M38.7,74.28l-9.19,19.4a.3.3,0,0,0,.06.34.79.79,0,0,0,.63.23l12.77-1a1.13,1.13,0,0,0,1-1.37l-3.92-17.2a.82.82,0,0,0-1.25-.51A.35.35,0,0,0,38.7,74.28Z"/><path class="cls-19" d="M38.74,74.2l-13.6,11A.82.82,0,0,0,25,86.26l4.48,7.59a.81.81,0,0,0,.77.4l13.12-1a.83.83,0,0,0,.74-1l-4-17.54A.82.82,0,0,0,38.74,74.2Z"/><path class="cls-13" d="M38.7,74.28l-9.19,19.4a.3.3,0,0,0,.06.34.79.79,0,0,0,.63.23l12.77-1a1.13,1.13,0,0,0,1-1.37l-3.92-17.2a.82.82,0,0,0-1.25-.51A.35.35,0,0,0,38.7,74.28Z"/><circle class="cls-13" cx="180.51" cy="81.64" r="13.5"/><path class="cls-20" d="M189.62,76.14s-1.69,4-6.77,1-5.92,2-7.61,4c0,0,3.38-4,7.61-1C185.47,82,187.87,80.21,189.62,76.14Z"/><path class="cls-21" d="M185.39,82.14s-1.69,4-6.77,1-5.92,2-7.61,4c0,0,3.38-4,7.61-1C181.24,88,183.64,86.21,185.39,82.14Z"/></g></g></svg>